 PTC IGES file: 80000323351.igs                                         S      1
1H,,1H;,11H80000323351,15H80000323351.igs,                              G      1
27HCreo Parametric by PTC Inc.,7H2024063,32,38,7,38,15,11H80000323351,  G      2
1.,2,2HMM,32768,0.5,15H20251101.110814,   0.01,    100.,5HTejas,        G      3
7HUnknown,10,0,15H20251101.110814;                                      G      4
     314       1       1       1       0       0       0       001000200D      1
     314       0       4       1       0                   COLOR       1D      2
     314       2       1       1       0       0       0       001000200D      3
     314       0       1       1       0                   COLOR       2D      4
     314       3       1       1       0       0       0       001000200D      5
     314       0       2       1       0                   COLOR       3D      6
     314       4       1       1       0       0       0       001000200D      7
     314       0       8       1       0                   COLOR       4D      8
     314       5       1       1       0       0       0       001000200D      9
     314       0       8       1       0                   COLOR       5D     10
     314       6       1       1       0       0       0       001000200D     11
     314       0       8       1       0                   COLOR       6D     12
     314       7       1       1       0       0       0       001000200D     13
     314       0       5       1       0                   COLOR       7D     14
     314       8       1       1       0       0       0       001000200D     15
     314       0       8       1       0                   COLOR       8D     16
     314       9       1       1       0       0       0       001000200D     17
     314       0       8       1       0                   COLOR       9D     18
     124      10       1       1       0       0       0       001000000D     19
     124       0       0       1       0                   XFORM       1D     20
     100      11       1       1       0       0      19       001010000D     21
     100       0       0       1       0                     ARC       1D     22
     124      12       1       1       0       0       0       001000000D     23
     124       0       0       1       0                   XFORM       2D     24
     100      13       1       1       0       0      23       001010000D     25
     100       0       0       1       0                     ARC       2D     26
     110      14       1       1       0       0       0       001010000D     27
     110       0       0       1       0                    LINE       1D     28
     110      15       1       1       0       0       0       001010000D     29
     110       0       0       1       0                    LINE       2D     30
     110      16       1       1       0       0       0       001010000D     31
     110       0       0       1       0                    LINE       3D     32
     110      17       1       1       0       0       0       001010000D     33
     110       0       0       1       0                    LINE       4D     34
     110      18       1       1       0       0       0       001010000D     35
     110       0       0       1       0                    LINE       5D     36
     110      19       1       1       0       0       0       001010000D     37
     110       0       0       1       0                    LINE       6D     38
     124      20       1       1       0       0       0       001000000D     39
     124       0       0       1       0                   XFORM       3D     40
     100      21       1       1       0       0      39       001010000D     41
     100       0       0       1       0                     ARC       3D     42
     124      22       1       1       0       0       0       001000000D     43
     124       0       0       1       0                   XFORM       4D     44
     100      23       1       1       0       0      43       001010000D     45
     100       0       0       1       0                     ARC       4D     46
     110      24       1       1       0       0       0       001010000D     47
     110       0       0       1       0                    LINE       7D     48
     110      25       1       1       0       0       0       001010000D     49
     110       0       0       1       0                    LINE       8D     50
     110      26       1       1       0       0       0       001010000D     51
     110       0       0       1       0                    LINE       9D     52
     110      27       1       1       0       0       0       001010000D     53
     110       0       0       1       0                    LINE      10D     54
     110      28       1       1       0       0       0       001010000D     55
     110       0       0       1       0                    LINE      11D     56
     110      29       1       1       0       0       0       001010000D     57
     110       0       0       1       0                    LINE      12D     58
     110      30       1       1       0       0       0       001010000D     59
     110       0       0       1       0                    LINE      13D     60
     110      31       1       1       0       0       0       001010000D     61
     110       0       0       1       0                    LINE      14D     62
     128      32       1       1       0       0       0       001010000D     63
     128       0       0       3       0                  SPLSRF       1D     64
     102      35       1       1       0       0       0       001010000D     65
     102       0       0       1       0                  CCURVE       1D     66
     110      36       1       1       0       0       0       001010500D     67
     110       0       0       1       0                    LINE      15D     68
     110      37       1       1       0       0       0       001010500D     69
     110       0       0       1       0                    LINE      16D     70
     110      38       1       1       0       0       0       001010500D     71
     110       0       0       1       0                    LINE      17D     72
     110      39       1       1       0       0       0       001010500D     73
     110       0       0       1       0                    LINE      18D     74
     102      40       1       1       0       0       0       001010500D     75
     102       0       0       1       0                  CCURVE       2D     76
     142      41       1       1       0       0       0       001010500D     77
     142       0       0       1       0                  UV_BND       1D     78
     102      42       1       1       0       0       0       001010000D     79
     102       0       0       1       0                  CCURVE       3D     80
     126      43       1       1       0       0       0       001010500D     81
     126       0       0      23       0                B_SPLINE       1D     82
     126      66       1       1       0       0       0       001010500D     83
     126       0       0      23       0                B_SPLINE       2D     84
     102      89       1       1       0       0       0       001010500D     85
     102       0       0       1       0                  CCURVE       4D     86
     142      90       1       1       0       0       0       001010500D     87
     142       0       0       1       0                  UV_BND       2D     88
     144      91       1       1       0       0       0       000000000D     89
     144       0       0       1       0                 TRM_SRF       1D     90
     110      92       1       1       0       0       0       001010000D     91
     110       0       0       1       0                    LINE      19D     92
     110      93       1       1       0       0       0       001010000D     93
     110       0       0       1       0                    LINE      20D     94
     120      94       1       1       0       0       0       001010000D     95
     120       0       0       1       0                    SREV       1D     96
     124      95       1       1       0       0       0       001000000D     97
     124       0       0       1       0                   XFORM       5D     98
     100      96       1       1       0       0      97       001010000D     99
     100       0       0       1       0                     ARC       5D    100
     110      97       1       1       0       0       0       001010000D    101
     110       0       0       1       0                    LINE      21D    102
     102      98       1       1       0       0       0       001010000D    103
     102       0       0       1       0                  CCURVE       5D    104
     110      99       1       1       0       0       0       001010500D    105
     110       0       0       2       0                    LINE      22D    106
     110     101       1       1       0       0       0       001010500D    107
     110       0       0       2       0                    LINE      23D    108
     110     103       1       1       0       0       0       001010500D    109
     110       0       0       2       0                    LINE      24D    110
     110     105       1       1       0       0       0       001010500D    111
     110       0       0       2       0                    LINE      25D    112
     102     107       1       1       0       0       0       001010500D    113
     102       0       0       1       0                  CCURVE       6D    114
     142     108       1       1       0       0       0       001010500D    115
     142       0       0       1       0                  UV_BND       3D    116
     144     109       1       1       0       0       0       000000000D    117
     144       0       0       1       0                 TRM_SRF       2D    118
     110     110       1       1       0       0       0       001010000D    119
     110       0       0       1       0                    LINE      26D    120
     110     111       1       1       0       0       0       001010000D    121
     110       0       0       1       0                    LINE      27D    122
     120     112       1       1       0       0       0       001010000D    123
     120       0       0       1       0                    SREV       2D    124
     124     113       1       1       0       0       0       001000000D    125
     124       0       0       1       0                   XFORM       6D    126
     100     114       1       1       0       0     125       001010000D    127
     100       0       0       1       0                     ARC       6D    128
     110     115       1       1       0       0       0       001010000D    129
     110       0       0       1       0                    LINE      28D    130
     102     116       1       1       0       0       0       001010000D    131
     102       0       0       1       0                  CCURVE       7D    132
     110     117       1       1       0       0       0       001010500D    133
     110       0       0       2       0                    LINE      29D    134
     110     119       1       1       0       0       0       001010500D    135
     110       0       0       1       0                    LINE      30D    136
     110     120       1       1       0       0       0       001010500D    137
     110       0       0       2       0                    LINE      31D    138
     110     122       1       1       0       0       0       001010500D    139
     110       0       0       2       0                    LINE      32D    140
     102     124       1       1       0       0       0       001010500D    141
     102       0       0       1       0                  CCURVE       8D    142
     142     125       1       1       0       0       0       001010500D    143
     142       0       0       1       0                  UV_BND       4D    144
     144     126       1       1       0       0       0       000000000D    145
     144       0       0       1       0                 TRM_SRF       3D    146
     128     127       1       1       0       0       0       001010000D    147
     128       0       0       3       0                  SPLSRF       2D    148
     102     130       1       1       0       0       0       001010000D    149
     102       0       0       1       0                  CCURVE       9D    150
     110     131       1       1       0       0       0       001010500D    151
     110       0       0       1       0                    LINE      33D    152
     110     132       1       1       0       0       0       001010500D    153
     110       0       0       1       0                    LINE      34D    154
     110     133       1       1       0       0       0       001010500D    155
     110       0       0       1       0                    LINE      35D    156
     110     134       1       1       0       0       0       001010500D    157
     110       0       0       1       0                    LINE      36D    158
     102     135       1       1       0       0       0       001010500D    159
     102       0       0       1       0                  CCURVE      10D    160
     142     136       1       1       0       0       0       001010500D    161
     142       0       0       1       0                  UV_BND       5D    162
     102     137       1       1       0       0       0       001010000D    163
     102       0       0       1       0                  CCURVE      11D    164
     126     138       1       1       0       0       0       001010500D    165
     126       0       0      23       0                B_SPLINE       3D    166
     126     161       1       1       0       0       0       001010500D    167
     126       0       0      23       0                B_SPLINE       4D    168
     102     184       1       1       0       0       0       001010500D    169
     102       0       0       1       0                  CCURVE      12D    170
     142     185       1       1       0       0       0       001010500D    171
     142       0       0       1       0                  UV_BND       6D    172
     144     186       1       1       0       0       0       000000000D    173
     144       0       0       1       0                 TRM_SRF       4D    174
     128     187       1       1       0       0       0       001010000D    175
     128       0       0       4       0                  SPLSRF       3D    176
     110     191       1       1       0       0       0       001010000D    177
     110       0       0       1       0                    LINE      37D    178
     110     192       1       1       0       0       0       001010000D    179
     110       0       0       1       0                    LINE      38D    180
     102     193       1       1       0       0       0       001010000D    181
     102       0       0       1       0                  CCURVE      13D    182
     110     194       1       1       0       0       0       001010500D    183
     110       0       0       1       0                    LINE      39D    184
     110     195       1       1       0       0       0       001010500D    185
     110       0       0       1       0                    LINE      40D    186
     110     196       1       1       0       0       0       001010500D    187
     110       0       0       1       0                    LINE      41D    188
     110     197       1       1       0       0       0       001010500D    189
     110       0       0       1       0                    LINE      42D    190
     102     198       1       1       0       0       0       001010500D    191
     102       0       0       1       0                  CCURVE      14D    192
     142     199       1       1       0       0       0       001010500D    193
     142       0       0       1       0                  UV_BND       7D    194
     144     200       1       1       0       0       0       000000000D    195
     144       0       0       1       0                 TRM_SRF       5D    196
     128     201       1       1       0       0       0       001010000D    197
     128       0       0       4       0                  SPLSRF       4D    198
     110     205       1       1       0       0       0       001010000D    199
     110       0       0       1       0                    LINE      43D    200
     110     206       1       1       0       0       0       001010000D    201
     110       0       0       1       0                    LINE      44D    202
     102     207       1       1       0       0       0       001010000D    203
     102       0       0       1       0                  CCURVE      15D    204
     110     208       1       1       0       0       0       001010500D    205
     110       0       0       1       0                    LINE      45D    206
     110     209       1       1       0       0       0       001010500D    207
     110       0       0       1       0                    LINE      46D    208
     110     210       1       1       0       0       0       001010500D    209
     110       0       0       1       0                    LINE      47D    210
     110     211       1       1       0       0       0       001010500D    211
     110       0       0       1       0                    LINE      48D    212
     102     212       1       1       0       0       0       001010500D    213
     102       0       0       1       0                  CCURVE      16D    214
     142     213       1       1       0       0       0       001010500D    215
     142       0       0       1       0                  UV_BND       8D    216
     144     214       1       1       0       0       0       000000000D    217
     144       0       0       1       0                 TRM_SRF       6D    218
     128     215       1       1       0       0       0       001010000D    219
     128       0       0       4       0                  SPLSRF       5D    220
     110     219       1       1       0       0       0       001010000D    221
     110       0       0       1       0                    LINE      49D    222
     110     220       1       1       0       0       0       001010000D    223
     110       0       0       1       0                    LINE      50D    224
     102     221       1       1       0       0       0       001010000D    225
     102       0       0       1       0                  CCURVE      17D    226
     110     222       1       1       0       0       0       001010500D    227
     110       0       0       1       0                    LINE      51D    228
     110     223       1       1       0       0       0       001010500D    229
     110       0       0       1       0                    LINE      52D    230
     110     224       1       1       0       0       0       001010500D    231
     110       0       0       1       0                    LINE      53D    232
     110     225       1       1       0       0       0       001010500D    233
     110       0       0       1       0                    LINE      54D    234
     102     226       1       1       0       0       0       001010500D    235
     102       0       0       1       0                  CCURVE      18D    236
     142     227       1       1       0       0       0       001010500D    237
     142       0       0       1       0                  UV_BND       9D    238
     144     228       1       1       0       0       0       000000000D    239
     144       0       0       1       0                 TRM_SRF       7D    240
     128     229       1       1       0       0       0       001010000D    241
     128       0       0       4       0                  SPLSRF       6D    242
     110     233       1       1       0       0       0       001010000D    243
     110       0       0       1       0                    LINE      55D    244
     110     234       1       1       0       0       0       001010000D    245
     110       0       0       1       0                    LINE      56D    246
     102     235       1       1       0       0       0       001010000D    247
     102       0       0       1       0                  CCURVE      19D    248
     110     236       1       1       0       0       0       001010500D    249
     110       0       0       1       0                    LINE      57D    250
     110     237       1       1       0       0       0       001010500D    251
     110       0       0       1       0                    LINE      58D    252
     110     238       1       1       0       0       0       001010500D    253
     110       0       0       1       0                    LINE      59D    254
     110     239       1       1       0       0       0       001010500D    255
     110       0       0       1       0                    LINE      60D    256
     102     240       1       1       0       0       0       001010500D    257
     102       0       0       1       0                  CCURVE      20D    258
     142     241       1       1       0       0       0       001010500D    259
     142       0       0       1       0                  UV_BND      10D    260
     144     242       1       1       0       0       0       000000000D    261
     144       0       0       1       0                 TRM_SRF       8D    262
314,1.1D0,1.2D0,1D2;                                                   1P      1
314,4.1D1,2.61589D1,1.12848D1;                                         3P      2
314,5.04854D1,1.5455D0,1.5455D0;                                       5P      3
314,6.35294D1,6.86275D1,7.4902D1;                                      7P      4
314,6.40777D1,6.40777D1,6.40777D1;                                     9P      5
314,6.69062D1,6.69903D1,6.55217D1;                                    11P      6
314,9.21569D1,7.05882D1,4.70588D1;                                    13P      7
314,1D2,1D2,5.3D1;                                                    15P      8
314,1D2,1D2,9.49D1;                                                   17P      9
124,1D0,0D0,0D0,0D0,0D0,0D0,-1D0,0D0,0D0,1D0,0D0,0D0;                 19P     10
100,0D0,0D0,0D0,9D0,0D0,-9D0,0D0;                                     21P     11
124,-1D0,0D0,0D0,0D0,0D0,0D0,-1D0,0D0,0D0,-1D0,0D0,0D0;               23P     12
100,0D0,0D0,0D0,9D0,0D0,-9D0,0D0;                                     25P     13
110,-7.5D1,0D0,-7.5D1,-7.5D1,0D0,7.5D1;                               27P     14
110,-7.5D1,0D0,7.5D1,7.5D1,0D0,7.5D1;                                 29P     15
110,7.5D1,0D0,7.5D1,7.5D1,0D0,-7.5D1;                                 31P     16
110,7.5D1,0D0,-7.5D1,-7.5D1,0D0,-7.5D1;                               33P     17
110,9D0,0D0,0D0,9D0,1D1,0D0;                                          35P     18
110,-9D0,0D0,0D0,-9D0,1D1,0D0;                                        37P     19
124,1D0,0D0,0D0,0D0,0D0,0D0,-1D0,1D1,0D0,1D0,0D0,0D0;                 39P     20
100,0D0,0D0,0D0,9D0,0D0,-9D0,0D0;                                     41P     21
124,-1D0,0D0,0D0,0D0,0D0,0D0,-1D0,1D1,0D0,-1D0,0D0,0D0;               43P     22
100,0D0,0D0,0D0,9D0,0D0,-9D0,0D0;                                     45P     23
110,-7.5D1,1D1,-7.5D1,-7.5D1,1D1,7.5D1;                               47P     24
110,7.5D1,1D1,-7.5D1,-7.5D1,1D1,-7.5D1;                               49P     25
110,7.5D1,1D1,7.5D1,7.5D1,1D1,-7.5D1;                                 51P     26
110,-7.5D1,1D1,7.5D1,7.5D1,1D1,7.5D1;                                 53P     27
110,-7.5D1,0D0,-7.5D1,-7.5D1,1D1,-7.5D1;                              55P     28
110,7.5D1,0D0,-7.5D1,7.5D1,1D1,-7.5D1;                                57P     29
110,7.5D1,0D0,7.5D1,7.5D1,1D1,7.5D1;                                  59P     30
110,-7.5D1,0D0,7.5D1,-7.5D1,1D1,7.5D1;                                61P     31
128,1,1,1,1,0,0,1,0,0,-7.8D1,-7.8D1,7.8D1,7.8D1,-7.8D1,-7.8D1,        63P     32
7.8D1,7.8D1,1D0,1D0,1D0,1D0,-7.8D1,0D0,7.8D1,7.8D1,0D0,7.8D1,         63P     33
-7.8D1,0D0,-7.8D1,7.8D1,0D0,-7.8D1,-7.8D1,7.8D1,-7.8D1,7.8D1;         63P     34
102,4,27,29,31,33;                                                    65P     35
110,-7.5D1,7.5D1,0D0,-7.5D1,-7.5D1,0D0;                               67P     36
110,-7.5D1,-7.5D1,0D0,7.5D1,-7.5D1,0D0;                               69P     37
110,7.5D1,-7.5D1,0D0,7.5D1,7.5D1,0D0;                                 71P     38
110,7.5D1,7.5D1,0D0,-7.5D1,7.5D1,0D0;                                 73P     39
102,4,67,69,71,73;                                                    75P     40
142,0,63,75,65,1;                                                     77P     41
102,2,21,25;                                                          79P     42
126,21,3,0,0,1,0,0D0,0D0,0D0,0D0,5.263157894737D-2,                   81P     43
1.052631578947D-1,1.578947368421D-1,2.105263157895D-1,                81P     44
2.631578947368D-1,3.157894736842D-1,3.684210526316D-1,                81P     45
4.210526315789D-1,4.736842105263D-1,5.263157894737D-1,                81P     46
5.789473684211D-1,6.315789473684D-1,6.842105263158D-1,                81P     47
7.368421052632D-1,7.894736842105D-1,8.421052631579D-1,                81P     48
8.947368421053D-1,9.473684210526D-1,1D0,1D0,1D0,1D0,1D0,1D0,1D0,      81P     49
1D0,1D0,1D0,1D0,1D0,1D0,1D0,1D0,1D0,1D0,1D0,1D0,1D0,1D0,1D0,1D0,      81P     50
1D0,1D0,1D0,9D0,0D0,0D0,9.000397143618D0,-4.961051503135D-1,0D0,      81P     51
8.917609778282D0,-1.488085879562D0,0D0,8.551280444334D0,              81P     52
-2.935649571223D0,0D0,7.951399496216D0,-4.303087172598D0,0D0,         81P     53
7.134704135954D0,-5.553160962385D0,0D0,6.123371467374D0,              81P     54
-6.651755463103D0,0D0,4.945014862341D0,-7.568908361552D0,0D0,         81P     55
3.631769621873D0,-8.279600916864D0,0D0,2.219459581426D0,              81P     56
-8.764447610365D0,0D0,7.466083580267D-1,-9.010223002399D0,0D0,        81P     57
-7.466083580267D-1,-9.010223002399D0,0D0,-2.219459581426D0,           81P     58
-8.764447610365D0,0D0,-3.631769621873D0,-8.279600916864D0,0D0,        81P     59
-4.945014862341D0,-7.568908361552D0,0D0,-6.123371467374D0,            81P     60
-6.651755463103D0,0D0,-7.134704135954D0,-5.553160962385D0,0D0,        81P     61
-7.951399496216D0,-4.303087172598D0,0D0,-8.551280444334D0,            81P     62
-2.935649571223D0,0D0,-8.917609778282D0,-1.488085879562D0,0D0,        81P     63
-9.000397143618D0,-4.961051503135D-1,0D0,-9D0,0D0,0D0,0D0,1D0,        81P     64
0D0,0D0,1D0;                                                          81P     65
126,21,3,0,0,1,0,0D0,0D0,0D0,0D0,5.263157894737D-2,                   83P     66
1.052631578947D-1,1.578947368421D-1,2.105263157895D-1,                83P     67
2.631578947368D-1,3.157894736842D-1,3.684210526316D-1,                83P     68
4.210526315789D-1,4.736842105263D-1,5.263157894737D-1,                83P     69
5.789473684211D-1,6.315789473684D-1,6.842105263158D-1,                83P     70
7.368421052632D-1,7.894736842105D-1,8.421052631579D-1,                83P     71
8.947368421053D-1,9.473684210526D-1,1D0,1D0,1D0,1D0,1D0,1D0,1D0,      83P     72
1D0,1D0,1D0,1D0,1D0,1D0,1D0,1D0,1D0,1D0,1D0,1D0,1D0,1D0,1D0,1D0,      83P     73
1D0,1D0,1D0,-9D0,0D0,0D0,-9.000397143618D0,4.961051503135D-1,         83P     74
0D0,-8.917609778282D0,1.488085879562D0,0D0,-8.551280444334D0,         83P     75
2.935649571223D0,0D0,-7.951399496216D0,4.303087172598D0,0D0,          83P     76
-7.134704135954D0,5.553160962385D0,0D0,-6.123371467374D0,             83P     77
6.651755463103D0,0D0,-4.945014862341D0,7.568908361552D0,0D0,          83P     78
-3.631769621873D0,8.279600916864D0,0D0,-2.219459581426D0,             83P     79
8.764447610365D0,0D0,-7.466083580267D-1,9.010223002399D0,0D0,         83P     80
7.466083580267D-1,9.010223002399D0,0D0,2.219459581426D0,              83P     81
8.764447610365D0,0D0,3.631769621873D0,8.279600916864D0,0D0,           83P     82
4.945014862341D0,7.568908361552D0,0D0,6.123371467374D0,               83P     83
6.651755463103D0,0D0,7.134704135954D0,5.553160962385D0,0D0,           83P     84
7.951399496216D0,4.303087172598D0,0D0,8.551280444334D0,               83P     85
2.935649571223D0,0D0,8.917609778282D0,1.488085879562D0,0D0,           83P     86
9.000397143618D0,4.961051503135D-1,0D0,9D0,0D0,0D0,0D0,1D0,0D0,       83P     87
0D0,1D0;                                                              83P     88
102,2,81,83;                                                          85P     89
142,0,63,85,79,1;                                                     87P     90
144,63,1,1,77,87;                                                     89P     91
110,0D0,0D0,0D0,0D0,1D0,0D0;                                          91P     92
110,9D0,-2D-1,0D0,9D0,1.02D1,0D0;                                     93P     93
120,91,93,3.078760800518D0,6.346017160251D0;                          95P     94
124,-1D0,0D0,0D0,0D0,0D0,0D0,1D0,1D1,0D0,1D0,0D0,0D0;                 97P     95
100,0D0,0D0,0D0,9D0,0D0,-9D0,0D0;                                     99P     96
110,9D0,1D1,0D0,9D0,0D0,0D0;                                         101P     97
102,4,21,37,99,101;                                                  103P     98
110,1.923076923077D-2,6.283185307180D0,0D0,1.923076923077D-2,        105P     99
3.141592653590D0,0D0;                                                105P    100
110,1.923076923077D-2,3.141592653590D0,0D0,9.807692307692D-1,        107P    101
3.141592653590D0,0D0;                                                107P    102
110,9.807692307692D-1,3.141592653590D0,0D0,9.807692307692D-1,        109P    103
6.283185307180D0,0D0;                                                109P    104
110,9.807692307692D-1,6.283185307180D0,0D0,1.923076923077D-2,        111P    105
6.283185307180D0,0D0;                                                111P    106
102,4,105,107,109,111;                                               113P    107
142,0,95,113,103,1;                                                  115P    108
144,95,1,0,115;                                                      117P    109
110,0D0,0D0,0D0,0D0,1D0,0D0;                                         119P    110
110,9D0,-2D-1,0D0,9D0,1.02D1,0D0;                                    121P    111
120,119,121,-6.283185307180D-2,3.204424506662D0;                     123P    112
124,1D0,0D0,0D0,0D0,0D0,0D0,1D0,1D1,0D0,-1D0,0D0,0D0;                125P    113
100,0D0,0D0,0D0,9D0,0D0,-9D0,0D0;                                    127P    114
110,-9D0,1D1,0D0,-9D0,0D0,0D0;                                       129P    115
102,4,25,35,127,129;                                                 131P    116
110,1.923076923077D-2,3.141592653590D0,0D0,1.923076923077D-2,        133P    117
0D0,0D0;                                                             133P    118
110,1.923076923077D-2,0D0,0D0,9.807692307692D-1,0D0,0D0;             135P    119
110,9.807692307692D-1,0D0,0D0,9.807692307692D-1,                     137P    120
3.141592653590D0,0D0;                                                137P    121
110,9.807692307692D-1,3.141592653590D0,0D0,1.923076923077D-2,        139P    122
3.141592653590D0,0D0;                                                139P    123
102,4,133,135,137,139;                                               141P    124
142,0,123,141,131,1;                                                 143P    125
144,123,1,0,143;                                                     145P    126
128,1,1,1,1,0,0,1,0,0,-7.8D1,-7.8D1,7.8D1,7.8D1,-7.8D1,-7.8D1,       147P    127
7.8D1,7.8D1,1D0,1D0,1D0,1D0,-7.8D1,1D1,7.8D1,7.8D1,1D1,7.8D1,        147P    128
-7.8D1,1D1,-7.8D1,7.8D1,1D1,-7.8D1,-7.8D1,7.8D1,-7.8D1,7.8D1;        147P    129
102,4,47,53,51,49;                                                   149P    130
110,-7.5D1,7.5D1,0D0,-7.5D1,-7.5D1,0D0;                              151P    131
110,-7.5D1,-7.5D1,0D0,7.5D1,-7.5D1,0D0;                              153P    132
110,7.5D1,-7.5D1,0D0,7.5D1,7.5D1,0D0;                                155P    133
110,7.5D1,7.5D1,0D0,-7.5D1,7.5D1,0D0;                                157P    134
102,4,151,153,155,157;                                               159P    135
142,0,147,159,149,1;                                                 161P    136
102,2,41,45;                                                         163P    137
126,21,3,0,0,1,0,0D0,0D0,0D0,0D0,5.263157894737D-2,                  165P    138
1.052631578947D-1,1.578947368421D-1,2.105263157895D-1,               165P    139
2.631578947368D-1,3.157894736842D-1,3.684210526316D-1,               165P    140
4.210526315789D-1,4.736842105263D-1,5.263157894737D-1,               165P    141
5.789473684211D-1,6.315789473684D-1,6.842105263158D-1,               165P    142
7.368421052632D-1,7.894736842105D-1,8.421052631579D-1,               165P    143
8.947368421053D-1,9.473684210526D-1,1D0,1D0,1D0,1D0,1D0,1D0,1D0,     165P    144
1D0,1D0,1D0,1D0,1D0,1D0,1D0,1D0,1D0,1D0,1D0,1D0,1D0,1D0,1D0,1D0,     165P    145
1D0,1D0,1D0,9D0,0D0,0D0,9.000397143618D0,-4.961051503135D-1,0D0,     165P    146
8.917609778282D0,-1.488085879562D0,0D0,8.551280444334D0,             165P    147
-2.935649571223D0,0D0,7.951399496216D0,-4.303087172598D0,0D0,        165P    148
7.134704135954D0,-5.553160962385D0,0D0,6.123371467374D0,             165P    149
-6.651755463103D0,0D0,4.945014862341D0,-7.568908361552D0,0D0,        165P    150
3.631769621873D0,-8.279600916864D0,0D0,2.219459581426D0,             165P    151
-8.764447610365D0,0D0,7.466083580267D-1,-9.010223002399D0,0D0,       165P    152
-7.466083580267D-1,-9.010223002399D0,0D0,-2.219459581426D0,          165P    153
-8.764447610365D0,0D0,-3.631769621873D0,-8.279600916864D0,0D0,       165P    154
-4.945014862341D0,-7.568908361552D0,0D0,-6.123371467374D0,           165P    155
-6.651755463103D0,0D0,-7.134704135954D0,-5.553160962385D0,0D0,       165P    156
-7.951399496216D0,-4.303087172598D0,0D0,-8.551280444334D0,           165P    157
-2.935649571223D0,0D0,-8.917609778282D0,-1.488085879562D0,0D0,       165P    158
-9.000397143618D0,-4.961051503135D-1,0D0,-9D0,0D0,0D0,0D0,1D0,       165P    159
0D0,0D0,1D0;                                                         165P    160
126,21,3,0,0,1,0,0D0,0D0,0D0,0D0,5.263157894737D-2,                  167P    161
1.052631578947D-1,1.578947368421D-1,2.105263157895D-1,               167P    162
2.631578947368D-1,3.157894736842D-1,3.684210526316D-1,               167P    163
4.210526315789D-1,4.736842105263D-1,5.263157894737D-1,               167P    164
5.789473684211D-1,6.315789473684D-1,6.842105263158D-1,               167P    165
7.368421052632D-1,7.894736842105D-1,8.421052631579D-1,               167P    166
8.947368421053D-1,9.473684210526D-1,1D0,1D0,1D0,1D0,1D0,1D0,1D0,     167P    167
1D0,1D0,1D0,1D0,1D0,1D0,1D0,1D0,1D0,1D0,1D0,1D0,1D0,1D0,1D0,1D0,     167P    168
1D0,1D0,1D0,-9D0,0D0,0D0,-9.000397143618D0,4.961051503135D-1,        167P    169
0D0,-8.917609778282D0,1.488085879562D0,0D0,-8.551280444334D0,        167P    170
2.935649571223D0,0D0,-7.951399496216D0,4.303087172598D0,0D0,         167P    171
-7.134704135954D0,5.553160962385D0,0D0,-6.123371467374D0,            167P    172
6.651755463103D0,0D0,-4.945014862341D0,7.568908361552D0,0D0,         167P    173
-3.631769621873D0,8.279600916864D0,0D0,-2.219459581426D0,            167P    174
8.764447610365D0,0D0,-7.466083580267D-1,9.010223002399D0,0D0,        167P    175
7.466083580267D-1,9.010223002399D0,0D0,2.219459581426D0,             167P    176
8.764447610365D0,0D0,3.631769621873D0,8.279600916864D0,0D0,          167P    177
4.945014862341D0,7.568908361552D0,0D0,6.123371467374D0,              167P    178
6.651755463103D0,0D0,7.134704135954D0,5.553160962385D0,0D0,          167P    179
7.951399496216D0,4.303087172598D0,0D0,8.551280444334D0,              167P    180
2.935649571223D0,0D0,8.917609778282D0,1.488085879562D0,0D0,          167P    181
9.000397143618D0,4.961051503135D-1,0D0,9D0,0D0,0D0,0D0,1D0,0D0,      167P    182
0D0,1D0;                                                             167P    183
102,2,165,167;                                                       169P    184
142,0,147,169,163,1;                                                 171P    185
144,147,1,1,161,171;                                                 173P    186
128,1,1,1,1,0,0,1,0,0,-3D0,-3D0,1.53D2,1.53D2,-2D-1,-2D-1,           175P    187
1.02D1,1.02D1,1D0,1D0,1D0,1D0,-7.5D1,-2D-1,-7.8D1,-7.5D1,-2D-1,      175P    188
7.8D1,-7.5D1,1.02D1,-7.8D1,-7.5D1,1.02D1,7.8D1,-3D0,1.53D2,          175P    189
-2D-1,1.02D1;                                                        175P    190
110,-7.5D1,1D1,7.5D1,-7.5D1,1D1,-7.5D1;                              177P    191
110,-7.5D1,1D1,-7.5D1,-7.5D1,0D0,-7.5D1;                             179P    192
102,4,27,61,177,179;                                                 181P    193
110,0D0,0D0,0D0,1.5D2,0D0,0D0;                                       183P    194
110,1.5D2,0D0,0D0,1.5D2,1D1,0D0;                                     185P    195
110,1.5D2,1D1,0D0,0D0,1D1,0D0;                                       187P    196
110,0D0,1D1,0D0,0D0,0D0,0D0;                                         189P    197
102,4,183,185,187,189;                                               191P    198
142,0,175,191,181,1;                                                 193P    199
144,175,1,0,193;                                                     195P    200
128,1,1,1,1,0,0,1,0,0,-3D0,-3D0,1.53D2,1.53D2,-2D-1,-2D-1,           197P    201
1.02D1,1.02D1,1D0,1D0,1D0,1D0,7.8D1,-2D-1,-7.5D1,-7.8D1,-2D-1,       197P    202
-7.5D1,7.8D1,1.02D1,-7.5D1,-7.8D1,1.02D1,-7.5D1,-3D0,1.53D2,         197P    203
-2D-1,1.02D1;                                                        197P    204
110,-7.5D1,1D1,-7.5D1,7.5D1,1D1,-7.5D1;                              199P    205
110,7.5D1,1D1,-7.5D1,7.5D1,0D0,-7.5D1;                               201P    206
102,4,33,55,199,201;                                                 203P    207
110,0D0,0D0,0D0,1.5D2,0D0,0D0;                                       205P    208
110,1.5D2,0D0,0D0,1.5D2,1D1,0D0;                                     207P    209
110,1.5D2,1D1,0D0,0D0,1D1,0D0;                                       209P    210
110,0D0,1D1,0D0,0D0,0D0,0D0;                                         211P    211
102,4,205,207,209,211;                                               213P    212
142,0,197,213,203,1;                                                 215P    213
144,197,1,0,215;                                                     217P    214
128,1,1,1,1,0,0,1,0,0,-3D0,-3D0,1.53D2,1.53D2,-2D-1,-2D-1,           219P    215
1.02D1,1.02D1,1D0,1D0,1D0,1D0,7.5D1,-2D-1,7.8D1,7.5D1,-2D-1,         219P    216
-7.8D1,7.5D1,1.02D1,7.8D1,7.5D1,1.02D1,-7.8D1,-3D0,1.53D2,-2D-1,     219P    217
1.02D1;                                                              219P    218
110,7.5D1,1D1,-7.5D1,7.5D1,1D1,7.5D1;                                221P    219
110,7.5D1,1D1,7.5D1,7.5D1,0D0,7.5D1;                                 223P    220
102,4,31,57,221,223;                                                 225P    221
110,0D0,0D0,0D0,1.5D2,0D0,0D0;                                       227P    222
110,1.5D2,0D0,0D0,1.5D2,1D1,0D0;                                     229P    223
110,1.5D2,1D1,0D0,0D0,1D1,0D0;                                       231P    224
110,0D0,1D1,0D0,0D0,0D0,0D0;                                         233P    225
102,4,227,229,231,233;                                               235P    226
142,0,219,235,225,1;                                                 237P    227
144,219,1,0,237;                                                     239P    228
128,1,1,1,1,0,0,1,0,0,-3D0,-3D0,1.53D2,1.53D2,-2D-1,-2D-1,           241P    229
1.02D1,1.02D1,1D0,1D0,1D0,1D0,-7.8D1,-2D-1,7.5D1,7.8D1,-2D-1,        241P    230
7.5D1,-7.8D1,1.02D1,7.5D1,7.8D1,1.02D1,7.5D1,-3D0,1.53D2,-2D-1,      241P    231
1.02D1;                                                              241P    232
110,7.5D1,1D1,7.5D1,-7.5D1,1D1,7.5D1;                                243P    233
110,-7.5D1,1D1,7.5D1,-7.5D1,0D0,7.5D1;                               245P    234
102,4,29,59,243,245;                                                 247P    235
110,0D0,0D0,0D0,1.5D2,0D0,0D0;                                       249P    236
110,1.5D2,0D0,0D0,1.5D2,1D1,0D0;                                     251P    237
110,1.5D2,1D1,0D0,0D0,1D1,0D0;                                       253P    238
110,0D0,1D1,0D0,0D0,0D0,0D0;                                         255P    239
102,4,249,251,253,255;                                               257P    240
142,0,241,257,247,1;                                                 259P    241
144,241,1,0,259;                                                     261P    242
S      1G      4D    262P    242                                        T      1
